<mxfile host="65bd71144e" pages="2">
    <diagram name="high-level" id="8-smb9yRM81izmXv1z2y">
        <mxGraphModel dx="462" dy="321" grid="1" gridSize="10" guides="1" tooltips="1" connect="1" arrows="1" fold="1" page="1" pageScale="1" pageWidth="850" pageHeight="1100" math="0" shadow="0">
            <root>
                <mxCell id="0"/>
                <mxCell id="1" parent="0"/>
                <mxCell id="fnA83SVF6pMEiWnQS_cF-1" value="" style="group" parent="1" vertex="1" connectable="0">
                    <mxGeometry x="330" y="60" width="450" height="190" as="geometry"/>
                </mxCell>
                <mxCell id="9G0C_g3oGiicDgi-TUx9-5" value="" style="rounded=0;whiteSpace=wrap;html=1;" parent="fnA83SVF6pMEiWnQS_cF-1" vertex="1">
                    <mxGeometry width="450" height="190" as="geometry"/>
                </mxCell>
                <mxCell id="9G0C_g3oGiicDgi-TUx9-6" value="Requirements" style="text;html=1;align=center;verticalAlign=middle;whiteSpace=wrap;rounded=0;fontSize=12;fontStyle=1" parent="fnA83SVF6pMEiWnQS_cF-1" vertex="1">
                    <mxGeometry x="135" y="10" width="180" height="30" as="geometry"/>
                </mxCell>
                <mxCell id="9G0C_g3oGiicDgi-TUx9-19" value="1. submittion of phone numbers, report problems...etc." style="text;html=1;align=left;verticalAlign=middle;whiteSpace=wrap;rounded=0;fontSize=12;" parent="fnA83SVF6pMEiWnQS_cF-1" vertex="1">
                    <mxGeometry x="10" y="80" width="180" height="70" as="geometry"/>
                </mxCell>
                <mxCell id="9G0C_g3oGiicDgi-TUx9-20" value="Functional r&lt;span style=&quot;background-color: transparent; color: light-dark(rgb(0, 0, 0), rgb(255, 255, 255));&quot; data--h-bstatus=&quot;0OBSERVED&quot;&gt;equirements&lt;/span&gt;" style="text;html=1;align=left;verticalAlign=middle;whiteSpace=wrap;rounded=0;fontSize=12;fontStyle=1" parent="fnA83SVF6pMEiWnQS_cF-1" vertex="1">
                    <mxGeometry x="10" y="50" width="180" height="30" as="geometry"/>
                </mxCell>
                <mxCell id="9G0C_g3oGiicDgi-TUx9-23" value="&lt;h1 data--h-bstatus=&quot;0OBSERVED&quot; style=&quot;margin-top: 0px;&quot;&gt;&lt;span data--h-bstatus=&quot;0OBSERVED&quot; style=&quot;background-color: transparent; color: light-dark(rgb(0, 0, 0), rgb(255, 255, 255));&quot;&gt;&lt;font data--h-bstatus=&quot;0OBSERVED&quot; style=&quot;font-size: 12px;&quot;&gt;Non-functional requirements&lt;/font&gt;&lt;/span&gt;&lt;/h1&gt;&lt;h1 data--h-bstatus=&quot;0OBSERVED&quot; style=&quot;margin-top: 0px; line-height: 0%;&quot;&gt;&lt;span data--h-bstatus=&quot;0OBSERVED&quot; style=&quot;font-weight: 400;&quot;&gt;&lt;font data--h-bstatus=&quot;0OBSERVED&quot; style=&quot;font-size: 11px;&quot;&gt;1. scalability: should be easily scalable&lt;/font&gt;&lt;/span&gt;&lt;/h1&gt;&lt;h1 data--h-bstatus=&quot;0OBSERVED&quot; style=&quot;margin-top: 0px; line-height: 0%;&quot;&gt;&lt;span data--h-bstatus=&quot;0OBSERVED&quot; style=&quot;background-color: transparent; color: light-dark(rgb(0, 0, 0), rgb(255, 255, 255)); font-weight: 400;&quot;&gt;&lt;font data--h-bstatus=&quot;0OBSERVED&quot; style=&quot;font-size: 11px;&quot;&gt;2. availability: should be always available&lt;/font&gt;&lt;/span&gt;&lt;/h1&gt;&lt;h1 data--h-bstatus=&quot;0OBSERVED&quot; style=&quot;margin-top: 0px; line-height: 0%;&quot;&gt;&lt;span data--h-bstatus=&quot;0OBSERVED&quot; style=&quot;background-color: transparent; color: light-dark(rgb(0, 0, 0), rgb(255, 255, 255)); font-weight: 400;&quot;&gt;&lt;font data--h-bstatus=&quot;0OBSERVED&quot; style=&quot;font-size: 11px;&quot;&gt;3. latency: shouldn&#39;t be a bad experience&lt;/font&gt;&lt;/span&gt;&lt;/h1&gt;&lt;h1 data--h-bstatus=&quot;0OBSERVED&quot; style=&quot;margin-top: 0px; line-height: 0%;&quot;&gt;&lt;span data--h-bstatus=&quot;0OBSERVED&quot; style=&quot;background-color: transparent; color: light-dark(rgb(0, 0, 0), rgb(255, 255, 255)); font-weight: normal;&quot;&gt;&lt;font data--h-bstatus=&quot;0OBSERVED&quot; style=&quot;font-size: 11px;&quot;&gt;4. consistency: all data should be synced&lt;/font&gt;&lt;/span&gt;&lt;/h1&gt;&lt;div data--h-bstatus=&quot;0OBSERVED&quot; style=&quot;line-height: 0%;&quot;&gt;&lt;span data--h-bstatus=&quot;0OBSERVED&quot; style=&quot;background-color: transparent; color: light-dark(rgb(0, 0, 0), rgb(255, 255, 255));&quot;&gt;&lt;font data--h-bstatus=&quot;0OBSERVED&quot; style=&quot;font-size: 11px;&quot;&gt;5. calculations: high&lt;/font&gt;&lt;/span&gt;&lt;/div&gt;" style="text;html=1;whiteSpace=wrap;overflow=hidden;rounded=0;" parent="fnA83SVF6pMEiWnQS_cF-1" vertex="1">
                    <mxGeometry x="210" y="30" width="230" height="150" as="geometry"/>
                </mxCell>
                <mxCell id="nlzph1IIV6YKt-vDAN2--1" value="" style="group" parent="1" vertex="1" connectable="0">
                    <mxGeometry x="890" y="90" width="480" height="170" as="geometry"/>
                </mxCell>
                <mxCell id="nlzph1IIV6YKt-vDAN2--2" value="" style="whiteSpace=wrap;html=1;fontSize=11;" parent="nlzph1IIV6YKt-vDAN2--1" vertex="1">
                    <mxGeometry width="480" height="170" as="geometry"/>
                </mxCell>
                <mxCell id="nlzph1IIV6YKt-vDAN2--3" style="edgeStyle=orthogonalEdgeStyle;rounded=0;orthogonalLoop=1;jettySize=auto;html=1;exitX=1;exitY=0.5;exitDx=0;exitDy=0;entryX=0;entryY=0.5;entryDx=0;entryDy=0;" parent="nlzph1IIV6YKt-vDAN2--1" source="nlzph1IIV6YKt-vDAN2--4" target="nlzph1IIV6YKt-vDAN2--6" edge="1">
                    <mxGeometry relative="1" as="geometry"/>
                </mxCell>
                <mxCell id="nlzph1IIV6YKt-vDAN2--4" value="user interface&lt;div&gt;nextjs, typescript&lt;/div&gt;" style="rounded=0;whiteSpace=wrap;html=1;" parent="nlzph1IIV6YKt-vDAN2--1" vertex="1">
                    <mxGeometry x="10" y="63" width="120" height="60" as="geometry"/>
                </mxCell>
                <mxCell id="nlzph1IIV6YKt-vDAN2--5" style="edgeStyle=orthogonalEdgeStyle;rounded=0;orthogonalLoop=1;jettySize=auto;html=1;exitX=1;exitY=0.5;exitDx=0;exitDy=0;" parent="nlzph1IIV6YKt-vDAN2--1" source="nlzph1IIV6YKt-vDAN2--6" target="nlzph1IIV6YKt-vDAN2--7" edge="1">
                    <mxGeometry relative="1" as="geometry"/>
                </mxCell>
                <mxCell id="nlzph1IIV6YKt-vDAN2--6" value="backend api server&lt;div&gt;expressjs, typescript&lt;/div&gt;" style="rounded=0;whiteSpace=wrap;html=1;" parent="nlzph1IIV6YKt-vDAN2--1" vertex="1">
                    <mxGeometry x="180" y="63" width="120" height="60" as="geometry"/>
                </mxCell>
                <mxCell id="nlzph1IIV6YKt-vDAN2--7" value="mongoDb db" style="dashed=0;outlineConnect=0;html=1;align=center;labelPosition=center;verticalLabelPosition=bottom;verticalAlign=top;shape=mxgraph.weblogos.mongodb" parent="nlzph1IIV6YKt-vDAN2--1" vertex="1">
                    <mxGeometry x="380" y="50" width="41.2" height="86.2" as="geometry"/>
                </mxCell>
                <mxCell id="nlzph1IIV6YKt-vDAN2--8" value="&lt;font style=&quot;font-size: 16px;&quot;&gt;&lt;b&gt;High level design (components)&lt;/b&gt;&lt;/font&gt;" style="text;html=1;align=center;verticalAlign=middle;resizable=0;points=[];autosize=1;strokeColor=none;fillColor=none;" parent="nlzph1IIV6YKt-vDAN2--1" vertex="1">
                    <mxGeometry y="10" width="270" height="30" as="geometry"/>
                </mxCell>
                <mxCell id="nlzph1IIV6YKt-vDAN2--9" value="" style="group" parent="1" vertex="1" connectable="0">
                    <mxGeometry x="70" y="290" width="640" height="1140" as="geometry"/>
                </mxCell>
                <mxCell id="nlzph1IIV6YKt-vDAN2--10" value="" style="whiteSpace=wrap;html=1;fontSize=11;" parent="nlzph1IIV6YKt-vDAN2--9" vertex="1">
                    <mxGeometry width="640" height="1140" as="geometry"/>
                </mxCell>
                <mxCell id="nlzph1IIV6YKt-vDAN2--11" value="&lt;div data--h-bstatus=&quot;0OBSERVED&quot;&gt;&lt;span style=&quot;font-size: 16px;&quot;&gt;&lt;b&gt;Send&lt;/b&gt;&lt;/span&gt;&lt;/div&gt;&lt;font data--h-bstatus=&quot;0OBSERVED&quot; style=&quot;font-size: 16px;&quot;&gt;&lt;b data--h-bstatus=&quot;0OBSERVED&quot;&gt;/send&lt;/b&gt;&lt;/font&gt;&lt;div data--h-bstatus=&quot;0OBSERVED&quot;&gt;&lt;br data--h-bstatus=&quot;0OBSERVED&quot;&gt;&lt;/div&gt;&lt;div data--h-bstatus=&quot;0OBSERVED&quot;&gt;submit a phone number&lt;/div&gt;&lt;div data--h-bstatus=&quot;0OBSERVED&quot;&gt;public&lt;/div&gt;&lt;div data--h-bstatus=&quot;0OBSERVED&quot;&gt;/phone&lt;br&gt;{...Phone}&lt;/div&gt;&lt;div data--h-bstatus=&quot;0OBSERVED&quot;&gt;POST&lt;/div&gt;&lt;div data--h-bstatus=&quot;0OBSERVED&quot;&gt;response: 200 ok&lt;/div&gt;&lt;div data--h-bstatus=&quot;0OBSERVED&quot;&gt;&lt;br data--h-bstatus=&quot;0OBSERVED&quot;&gt;&lt;/div&gt;&lt;div data--h-bstatus=&quot;0OBSERVED&quot;&gt;&lt;br&gt;&lt;/div&gt;&lt;div data--h-bstatus=&quot;0OBSERVED&quot;&gt;&lt;div style=&quot;color: rgb(63, 63, 63); scrollbar-color: rgb(226, 226, 226) rgb(251, 251, 251);&quot; data--h-bstatus=&quot;0OBSERVED&quot;&gt;&lt;span style=&quot;color: rgb(63, 63, 63); background-color: transparent;&quot;&gt;report a problem&lt;br&gt;public&lt;/span&gt;&lt;/div&gt;&lt;div style=&quot;color: rgb(63, 63, 63); scrollbar-color: rgb(226, 226, 226) rgb(251, 251, 251);&quot; data--h-bstatus=&quot;0OBSERVED&quot;&gt;/report&lt;br style=&quot;color: rgb(63, 63, 63); scrollbar-color: rgb(226, 226, 226) rgb(251, 251, 251);&quot;&gt;{...Report}&lt;/div&gt;&lt;div style=&quot;color: rgb(63, 63, 63); scrollbar-color: rgb(226, 226, 226) rgb(251, 251, 251);&quot; data--h-bstatus=&quot;0OBSERVED&quot;&gt;POST&lt;/div&gt;&lt;div style=&quot;color: rgb(63, 63, 63); scrollbar-color: rgb(226, 226, 226) rgb(251, 251, 251);&quot; data--h-bstatus=&quot;0OBSERVED&quot;&gt;response: 200 ok&lt;br&gt;&lt;br&gt;&lt;div style=&quot;color: rgb(63, 63, 63); scrollbar-color: rgb(226, 226, 226) rgb(251, 251, 251);&quot; data--h-bstatus=&quot;0OBSERVED&quot;&gt;log an event to apache kafka or fluentd&lt;/div&gt;&lt;div style=&quot;color: rgb(63, 63, 63); scrollbar-color: rgb(226, 226, 226) rgb(251, 251, 251);&quot; data--h-bstatus=&quot;0OBSERVED&quot;&gt;public&lt;/div&gt;&lt;div style=&quot;color: rgb(63, 63, 63); scrollbar-color: rgb(226, 226, 226) rgb(251, 251, 251);&quot; data--h-bstatus=&quot;0OBSERVED&quot;&gt;/log&lt;br style=&quot;color: rgb(63, 63, 63); scrollbar-color: rgb(226, 226, 226) rgb(251, 251, 251);&quot;&gt;{...Event}&lt;/div&gt;&lt;div style=&quot;color: rgb(63, 63, 63); scrollbar-color: rgb(226, 226, 226) rgb(251, 251, 251);&quot; data--h-bstatus=&quot;0OBSERVED&quot;&gt;POST&lt;/div&gt;&lt;div style=&quot;color: rgb(63, 63, 63); scrollbar-color: rgb(226, 226, 226) rgb(251, 251, 251);&quot; data--h-bstatus=&quot;0OBSERVED&quot;&gt;response: 200 ok&lt;/div&gt;&lt;/div&gt;&lt;/div&gt;" style="text;html=1;align=left;verticalAlign=middle;resizable=0;points=[];autosize=1;strokeColor=none;fillColor=none;" parent="nlzph1IIV6YKt-vDAN2--9" vertex="1">
                    <mxGeometry x="30" y="10" width="230" height="370" as="geometry"/>
                </mxCell>
                <mxCell id="nlzph1IIV6YKt-vDAN2--13" value="&lt;font style=&quot;font-size: 16px;&quot;&gt;&lt;b&gt;High level design (API)&lt;/b&gt;&lt;/font&gt;" style="text;html=1;align=center;verticalAlign=middle;resizable=0;points=[];autosize=1;strokeColor=none;fillColor=none;" parent="nlzph1IIV6YKt-vDAN2--9" vertex="1">
                    <mxGeometry x="430" y="15.267857142857142" width="200" height="30" as="geometry"/>
                </mxCell>
                <mxCell id="nlzph1IIV6YKt-vDAN2--18" value="" style="group" parent="1" vertex="1" connectable="0">
                    <mxGeometry x="750" y="290" width="640" height="1290" as="geometry"/>
                </mxCell>
                <mxCell id="nlzph1IIV6YKt-vDAN2--19" value="" style="whiteSpace=wrap;html=1;fontSize=11;" parent="nlzph1IIV6YKt-vDAN2--18" vertex="1">
                    <mxGeometry width="640" height="1150" as="geometry"/>
                </mxCell>
                <mxCell id="nlzph1IIV6YKt-vDAN2--20" value="&lt;div data--h-bstatus=&quot;0OBSERVED&quot;&gt;&lt;b data--h-bstatus=&quot;0OBSERVED&quot; style=&quot;font-size: 16px; color: light-dark(rgb(0, 0, 0), rgb(255, 255, 255)); background-color: light-dark(#ffffff, var(--ge-dark-color, #121212));&quot;&gt;Phone&lt;/b&gt;&lt;/div&gt;&lt;div data--h-bstatus=&quot;0OBSERVED&quot;&gt;&lt;span style=&quot;background-color: light-dark(#ffffff, var(--ge-dark-color, #121212));&quot;&gt;&lt;br data--h-bstatus=&quot;0OBSERVED&quot;&gt;&lt;/span&gt;&lt;/div&gt;&lt;div data--h-bstatus=&quot;0OBSERVED&quot;&gt;&lt;span style=&quot;background-color: light-dark(#ffffff, var(--ge-dark-color, #121212));&quot;&gt;{&lt;/span&gt;&lt;/div&gt;&lt;div data--h-bstatus=&quot;0OBSERVED&quot;&gt;&lt;span style=&quot;color: rgb(63, 63, 63);&quot;&gt;&lt;span style=&quot;background-color: rgb(251, 251, 251);&quot;&gt;&lt;span style=&quot;white-space: pre;&quot;&gt;&#x9;&lt;/span&gt;phone: string,&lt;/span&gt;&lt;/span&gt;&lt;/div&gt;&lt;div data--h-bstatus=&quot;0OBSERVED&quot;&gt;&lt;span style=&quot;color: rgb(63, 63, 63);&quot;&gt;&lt;span style=&quot;background-color: rgb(251, 251, 251);&quot;&gt;&lt;span style=&quot;white-space: pre;&quot;&gt;&#x9;&lt;/span&gt;source: window|website|android&lt;br&gt;&lt;/span&gt;}&lt;/span&gt;&lt;/div&gt;" style="text;html=1;align=left;verticalAlign=middle;resizable=0;points=[];autosize=1;strokeColor=none;fillColor=none;" parent="nlzph1IIV6YKt-vDAN2--18" vertex="1">
                    <mxGeometry x="30" y="90" width="220" height="100" as="geometry"/>
                </mxCell>
                <mxCell id="nlzph1IIV6YKt-vDAN2--23" value="&lt;font style=&quot;font-size: 16px;&quot;&gt;&lt;b&gt;Data models&lt;/b&gt;&lt;/font&gt;" style="text;html=1;align=center;verticalAlign=middle;resizable=0;points=[];autosize=1;strokeColor=none;fillColor=none;" parent="nlzph1IIV6YKt-vDAN2--18" vertex="1">
                    <mxGeometry x="470" y="15" width="120" height="30" as="geometry"/>
                </mxCell>
                <mxCell id="nlzph1IIV6YKt-vDAN2--39" value="&lt;span style=&quot;background-color: rgb(255, 255, 255);&quot;&gt;all data models should include the id, created_at, updated_at properties&lt;/span&gt;" style="text;html=1;align=left;verticalAlign=middle;resizable=0;points=[];autosize=1;strokeColor=none;fillColor=none;" parent="nlzph1IIV6YKt-vDAN2--18" vertex="1">
                    <mxGeometry x="20" y="10" width="400" height="30" as="geometry"/>
                </mxCell>
                <mxCell id="nlzph1IIV6YKt-vDAN2--40" value="&lt;div data--h-bstatus=&quot;0OBSERVED&quot;&gt;&lt;b data--h-bstatus=&quot;0OBSERVED&quot; style=&quot;font-size: 16px; color: light-dark(rgb(0, 0, 0), rgb(255, 255, 255)); background-color: light-dark(#ffffff, var(--ge-dark-color, #121212));&quot;&gt;Report&lt;/b&gt;&lt;/div&gt;&lt;div data--h-bstatus=&quot;0OBSERVED&quot;&gt;&lt;span style=&quot;background-color: light-dark(#ffffff, var(--ge-dark-color, #121212));&quot;&gt;&lt;br data--h-bstatus=&quot;0OBSERVED&quot;&gt;&lt;/span&gt;&lt;/div&gt;&lt;div data--h-bstatus=&quot;0OBSERVED&quot;&gt;&lt;span style=&quot;background-color: light-dark(#ffffff, var(--ge-dark-color, #121212));&quot;&gt;{&lt;br&gt;&lt;span style=&quot;white-space: pre;&quot;&gt;&#x9;&lt;/span&gt;name: string,&lt;br&gt;&lt;span style=&quot;white-space: pre;&quot;&gt;&#x9;&lt;/span&gt;email: string,&lt;br&gt;&lt;/span&gt;&lt;/div&gt;&lt;div data--h-bstatus=&quot;0OBSERVED&quot;&gt;&lt;span style=&quot;color: rgb(63, 63, 63);&quot;&gt;&lt;span style=&quot;background-color: rgb(251, 251, 251);&quot;&gt;&lt;span style=&quot;white-space: pre;&quot;&gt;&#x9;&lt;/span&gt;phone: string,&lt;br&gt;&lt;span style=&quot;white-space: pre;&quot;&gt;&#x9;&lt;/span&gt;message: string&lt;br&gt;&lt;/span&gt;&lt;/span&gt;&lt;/div&gt;&lt;div data--h-bstatus=&quot;0OBSERVED&quot;&gt;&lt;span style=&quot;color: rgb(63, 63, 63);&quot;&gt;&lt;span style=&quot;background-color: rgb(251, 251, 251);&quot;&gt;&lt;span style=&quot;white-space: pre;&quot;&gt;&#x9;&lt;/span&gt;source: window|website|android&lt;br&gt;&lt;/span&gt;}&lt;/span&gt;&lt;/div&gt;" style="text;html=1;align=left;verticalAlign=middle;resizable=0;points=[];autosize=1;strokeColor=none;fillColor=none;" parent="nlzph1IIV6YKt-vDAN2--18" vertex="1">
                    <mxGeometry x="30" y="210" width="220" height="150" as="geometry"/>
                </mxCell>
                <mxCell id="nlzph1IIV6YKt-vDAN2--32" value="" style="group" parent="1" vertex="1" connectable="0">
                    <mxGeometry x="1430" y="290" width="640" height="433" as="geometry"/>
                </mxCell>
                <mxCell id="nlzph1IIV6YKt-vDAN2--33" value="" style="whiteSpace=wrap;html=1;fontSize=11;" parent="nlzph1IIV6YKt-vDAN2--32" vertex="1">
                    <mxGeometry width="640" height="433" as="geometry"/>
                </mxCell>
                <mxCell id="nlzph1IIV6YKt-vDAN2--34" value="&lt;div data--h-bstatus=&quot;0OBSERVED&quot;&gt;&lt;b data--h-bstatus=&quot;0OBSERVED&quot; style=&quot;font-size: 16px; background-color: transparent; color: light-dark(rgb(0, 0, 0), rgb(255, 255, 255));&quot;&gt;Submitions&lt;/b&gt;&lt;/div&gt;&lt;div data--h-bstatus=&quot;0OBSERVED&quot;&gt;&lt;br data--h-bstatus=&quot;0OBSERVED&quot;&gt;&lt;/div&gt;&lt;div data--h-bstatus=&quot;0OBSERVED&quot;&gt;actor: user&lt;/div&gt;&lt;div data--h-bstatus=&quot;0OBSERVED&quot;&gt;&lt;br data--h-bstatus=&quot;0OBSERVED&quot;&gt;&lt;/div&gt;&lt;div data--h-bstatus=&quot;0OBSERVED&quot;&gt;scenario:&lt;/div&gt;&lt;div data--h-bstatus=&quot;0OBSERVED&quot;&gt;user should seemleslly submit phone numbers&lt;br&gt;report problems&lt;/div&gt;" style="text;html=1;align=left;verticalAlign=middle;resizable=0;points=[];autosize=1;strokeColor=none;fillColor=none;" parent="nlzph1IIV6YKt-vDAN2--32" vertex="1">
                    <mxGeometry x="30" y="70" width="270" height="120" as="geometry"/>
                </mxCell>
                <mxCell id="nlzph1IIV6YKt-vDAN2--35" value="&lt;font style=&quot;font-size: 16px;&quot;&gt;&lt;b&gt;Use cases&lt;/b&gt;&lt;/font&gt;" style="text;html=1;align=center;verticalAlign=middle;resizable=0;points=[];autosize=1;strokeColor=none;fillColor=none;" parent="nlzph1IIV6YKt-vDAN2--32" vertex="1">
                    <mxGeometry x="480" y="15" width="100" height="30" as="geometry"/>
                </mxCell>
                <mxCell id="nlzph1IIV6YKt-vDAN2--36" value="&lt;div data--h-bstatus=&quot;0OBSERVED&quot;&gt;&lt;span style=&quot;font-size: 16px;&quot;&gt;&lt;b&gt;domain names addition&lt;br&gt;&lt;br&gt;&lt;/b&gt;&lt;/span&gt;&lt;/div&gt;&lt;div data--h-bstatus=&quot;0OBSERVED&quot;&gt;Actor: user&lt;/div&gt;&lt;div data--h-bstatus=&quot;0OBSERVED&quot;&gt;&lt;br data--h-bstatus=&quot;0OBSERVED&quot;&gt;&lt;/div&gt;&lt;div data--h-bstatus=&quot;0OBSERVED&quot;&gt;&lt;span data--h-bstatus=&quot;0OBSERVED&quot; style=&quot;background-color: transparent; color: light-dark(rgb(0, 0, 0), rgb(255, 255, 255));&quot;&gt;scenarios:&lt;/span&gt;&lt;/div&gt;&lt;div data--h-bstatus=&quot;0OBSERVED&quot;&gt;user should be able to submit a domain name to&lt;br&gt;be blocked, and this domains can be viewed in &lt;br&gt;the admin panel, and users with verified phone&lt;br&gt;numbers can see this suggestions, and vote on it&lt;br&gt;&lt;/div&gt;" style="text;html=1;align=left;verticalAlign=middle;resizable=0;points=[];autosize=1;strokeColor=none;fillColor=none;" parent="nlzph1IIV6YKt-vDAN2--32" vertex="1">
                    <mxGeometry x="30" y="230" width="280" height="150" as="geometry"/>
                </mxCell>
                <mxCell id="nlzph1IIV6YKt-vDAN2--37" value="&lt;div&gt;&lt;span style=&quot;font-size: 16px;&quot;&gt;&lt;b&gt;Authentication &amp;amp; Authorization&lt;/b&gt;&lt;/span&gt;&lt;/div&gt;&lt;div&gt;&lt;span style=&quot;font-size: 16px;&quot;&gt;&lt;b&gt;&lt;br&gt;&lt;/b&gt;&lt;/span&gt;&lt;/div&gt;&lt;div&gt;actor: user&lt;/div&gt;&lt;div&gt;&lt;br&gt;&lt;/div&gt;&lt;div&gt;scenario:&lt;/div&gt;&lt;div&gt;user should seemlesly login, register, confirm&lt;/div&gt;&lt;div&gt;email, reset password, and configure 2FA&lt;/div&gt;" style="text;html=1;align=left;verticalAlign=middle;resizable=0;points=[];autosize=1;strokeColor=none;fillColor=none;" parent="nlzph1IIV6YKt-vDAN2--32" vertex="1">
                    <mxGeometry x="300" y="70" width="260" height="120" as="geometry"/>
                </mxCell>
                <mxCell id="nlzph1IIV6YKt-vDAN2--38" value="&lt;div data--h-bstatus=&quot;0OBSERVED&quot;&gt;&lt;span data--h-bstatus=&quot;0OBSERVED&quot; style=&quot;font-size: 16px;&quot;&gt;&lt;b data--h-bstatus=&quot;0OBSERVED&quot;&gt;profile&lt;/b&gt;&lt;/span&gt;&lt;/div&gt;&lt;div data--h-bstatus=&quot;0OBSERVED&quot;&gt;&lt;span data--h-bstatus=&quot;0OBSERVED&quot; style=&quot;font-size: 16px;&quot;&gt;&lt;b data--h-bstatus=&quot;0OBSERVED&quot;&gt;&lt;br data--h-bstatus=&quot;0OBSERVED&quot;&gt;&lt;/b&gt;&lt;/span&gt;&lt;/div&gt;&lt;div data--h-bstatus=&quot;0OBSERVED&quot;&gt;actor: user&lt;/div&gt;&lt;div data--h-bstatus=&quot;0OBSERVED&quot;&gt;&lt;br data--h-bstatus=&quot;0OBSERVED&quot;&gt;&lt;/div&gt;&lt;div data--h-bstatus=&quot;0OBSERVED&quot;&gt;scenario:&lt;/div&gt;&lt;div data--h-bstatus=&quot;0OBSERVED&quot;&gt;user should have the ability to view his&amp;nbsp;&lt;/div&gt;&lt;div data--h-bstatus=&quot;0OBSERVED&quot;&gt;subscriptions, transactions&amp;nbsp;&lt;span data--h-bstatus=&quot;0OBSERVED&quot; style=&quot;background-color: transparent; color: light-dark(rgb(0, 0, 0), rgb(255, 255, 255));&quot;&gt;one of them, and&amp;nbsp;&lt;/span&gt;&lt;/div&gt;&lt;div data--h-bstatus=&quot;0OBSERVED&quot;&gt;&lt;span data--h-bstatus=&quot;0OBSERVED&quot; style=&quot;background-color: transparent; color: light-dark(rgb(0, 0, 0), rgb(255, 255, 255));&quot;&gt;transactions.&amp;nbsp;&lt;/span&gt;&lt;/div&gt;&lt;div data--h-bstatus=&quot;0OBSERVED&quot;&gt;&lt;span data--h-bstatus=&quot;0OBSERVED&quot; style=&quot;background-color: transparent; color: light-dark(rgb(0, 0, 0), rgb(255, 255, 255));&quot;&gt;Also user should be&amp;nbsp;&lt;/span&gt;&lt;span data--h-bstatus=&quot;0OBSERVED&quot; style=&quot;background-color: transparent; color: light-dark(rgb(0, 0, 0), rgb(255, 255, 255));&quot;&gt;able to see, modify his&amp;nbsp;&lt;/span&gt;&lt;/div&gt;&lt;div data--h-bstatus=&quot;0OBSERVED&quot;&gt;&lt;span data--h-bstatus=&quot;0OBSERVED&quot; style=&quot;background-color: transparent; color: light-dark(rgb(0, 0, 0), rgb(255, 255, 255));&quot;&gt;personal-info, settings...etc.&lt;/span&gt;&lt;/div&gt;" style="text;html=1;align=left;verticalAlign=middle;resizable=0;points=[];autosize=1;strokeColor=none;fillColor=none;" parent="nlzph1IIV6YKt-vDAN2--32" vertex="1">
                    <mxGeometry x="300" y="210" width="260" height="170" as="geometry"/>
                </mxCell>
            </root>
        </mxGraphModel>
    </diagram>
    <diagram id="yDcnoQ-w4sotKixott70" name="website">
        <mxGraphModel dx="1266" dy="289" grid="1" gridSize="10" guides="1" tooltips="1" connect="1" arrows="1" fold="1" page="1" pageScale="1" pageWidth="850" pageHeight="1100" background="#ffffff" math="0" shadow="0">
            <root>
                <mxCell id="0"/>
                <mxCell id="1" parent="0"/>
                <mxCell id="rOXuChgOmX8JVEiVYjmg-1" value="Requirements:&lt;br&gt;&lt;br&gt;1. steps/installation of apps for windows, android, linux, mac, ios, router&lt;div&gt;2. clear explanations for every step&lt;/div&gt;&lt;div&gt;3. a page indicating that protection is already done on this device&lt;/div&gt;" style="text;html=1;align=center;verticalAlign=middle;resizable=0;points=[];autosize=1;strokeColor=none;fillColor=none;" parent="1" vertex="1">
                    <mxGeometry x="40" y="28" width="400" height="90" as="geometry"/>
                </mxCell>
                <mxCell id="rOXuChgOmX8JVEiVYjmg-8" style="edgeStyle=none;html=1;strokeColor=light-dark(#ff0000, #ededed);strokeWidth=2;endArrow=openAsync;endFill=0;" parent="1" source="rOXuChgOmX8JVEiVYjmg-2" target="rOXuChgOmX8JVEiVYjmg-3" edge="1">
                    <mxGeometry relative="1" as="geometry"/>
                </mxCell>
                <mxCell id="UtuCvoRXhWz_WTzKwQfW-2" value="" style="edgeStyle=none;html=1;" parent="1" source="rOXuChgOmX8JVEiVYjmg-2" target="UtuCvoRXhWz_WTzKwQfW-1" edge="1">
                    <mxGeometry relative="1" as="geometry"/>
                </mxCell>
                <mxCell id="rOXuChgOmX8JVEiVYjmg-2" value="الصفحة الرئيسية" style="rounded=1;whiteSpace=wrap;html=1;" parent="1" vertex="1">
                    <mxGeometry x="150" y="170" width="120" height="60" as="geometry"/>
                </mxCell>
                <mxCell id="UtuCvoRXhWz_WTzKwQfW-19" value="" style="edgeStyle=none;html=1;" parent="1" source="rOXuChgOmX8JVEiVYjmg-3" target="UtuCvoRXhWz_WTzKwQfW-18" edge="1">
                    <mxGeometry relative="1" as="geometry"/>
                </mxCell>
                <mxCell id="UtuCvoRXhWz_WTzKwQfW-43" style="edgeStyle=none;html=1;strokeColor=light-dark(#ff0000, #ededed);endArrow=openAsync;endFill=0;" parent="1" source="rOXuChgOmX8JVEiVYjmg-3" target="rOXuChgOmX8JVEiVYjmg-4" edge="1">
                    <mxGeometry relative="1" as="geometry"/>
                </mxCell>
                <mxCell id="rOXuChgOmX8JVEiVYjmg-3" value="شوية شرح" style="rounded=1;whiteSpace=wrap;html=1;" parent="1" vertex="1">
                    <mxGeometry x="330" y="170" width="120" height="60" as="geometry"/>
                </mxCell>
                <mxCell id="rOXuChgOmX8JVEiVYjmg-10" style="edgeStyle=none;html=1;entryX=0;entryY=0.5;entryDx=0;entryDy=0;strokeColor=light-dark(#ff0000, #ededed);endArrow=openAsync;endFill=0;" parent="1" source="rOXuChgOmX8JVEiVYjmg-4" target="rOXuChgOmX8JVEiVYjmg-5" edge="1">
                    <mxGeometry relative="1" as="geometry"/>
                </mxCell>
                <mxCell id="UtuCvoRXhWz_WTzKwQfW-21" value="" style="edgeStyle=none;html=1;" parent="1" source="rOXuChgOmX8JVEiVYjmg-4" target="UtuCvoRXhWz_WTzKwQfW-20" edge="1">
                    <mxGeometry relative="1" as="geometry"/>
                </mxCell>
                <mxCell id="rOXuChgOmX8JVEiVYjmg-4" value="اختار الجهاز اللي عايز تفعل عليه الحماية" style="rounded=1;whiteSpace=wrap;html=1;" parent="1" vertex="1">
                    <mxGeometry x="500" y="170" width="120" height="60" as="geometry"/>
                </mxCell>
                <mxCell id="rOXuChgOmX8JVEiVYjmg-11" style="edgeStyle=none;html=1;strokeColor=light-dark(#ff0000, #ededed);endArrow=openAsync;endFill=0;entryX=0;entryY=0.5;entryDx=0;entryDy=0;" parent="1" source="rOXuChgOmX8JVEiVYjmg-5" target="UtuCvoRXhWz_WTzKwQfW-56" edge="1">
                    <mxGeometry relative="1" as="geometry">
                        <mxPoint x="850" y="200" as="targetPoint"/>
                    </mxGeometry>
                </mxCell>
                <mxCell id="UtuCvoRXhWz_WTzKwQfW-26" value="" style="edgeStyle=none;html=1;" parent="1" source="rOXuChgOmX8JVEiVYjmg-5" target="UtuCvoRXhWz_WTzKwQfW-25" edge="1">
                    <mxGeometry relative="1" as="geometry"/>
                </mxCell>
                <mxCell id="rOXuChgOmX8JVEiVYjmg-5" value="شرح خطوات أو برنامج للتحميل" style="rounded=1;whiteSpace=wrap;html=1;" parent="1" vertex="1">
                    <mxGeometry x="680" y="170" width="120" height="60" as="geometry"/>
                </mxCell>
                <mxCell id="rOXuChgOmX8JVEiVYjmg-18" style="edgeStyle=none;html=1;strokeColor=light-dark(#ff0000, #ededed);endArrow=openAsync;endFill=0;" parent="1" source="rOXuChgOmX8JVEiVYjmg-7" target="rOXuChgOmX8JVEiVYjmg-16" edge="1">
                    <mxGeometry relative="1" as="geometry"/>
                </mxCell>
                <mxCell id="UtuCvoRXhWz_WTzKwQfW-32" value="" style="edgeStyle=none;html=1;" parent="1" source="rOXuChgOmX8JVEiVYjmg-7" target="UtuCvoRXhWz_WTzKwQfW-31" edge="1">
                    <mxGeometry relative="1" as="geometry"/>
                </mxCell>
                <mxCell id="rOXuChgOmX8JVEiVYjmg-7" value="دعمنا، أم تفعليها على جهاز اخر" style="rounded=1;whiteSpace=wrap;html=1;" parent="1" vertex="1">
                    <mxGeometry x="1040" y="170" width="120" height="60" as="geometry"/>
                </mxCell>
                <mxCell id="UtuCvoRXhWz_WTzKwQfW-36" value="" style="edgeStyle=none;html=1;" parent="1" source="rOXuChgOmX8JVEiVYjmg-13" target="UtuCvoRXhWz_WTzKwQfW-35" edge="1">
                    <mxGeometry relative="1" as="geometry"/>
                </mxCell>
                <mxCell id="rOXuChgOmX8JVEiVYjmg-13" value="الصفحة الرئيسية للمدونة" style="rounded=1;whiteSpace=wrap;html=1;" parent="1" vertex="1">
                    <mxGeometry x="1390" y="170" width="120" height="60" as="geometry"/>
                </mxCell>
                <mxCell id="rOXuChgOmX8JVEiVYjmg-14" value="خدمة العملاء و التبرع موجودين دائما" style="rounded=1;whiteSpace=wrap;html=1;" parent="1" vertex="1">
                    <mxGeometry x="1570" y="170" width="120" height="60" as="geometry"/>
                </mxCell>
                <mxCell id="rOXuChgOmX8JVEiVYjmg-15" value="نافذة مستويات الحماية" style="rounded=1;whiteSpace=wrap;html=1;" parent="1" vertex="1">
                    <mxGeometry x="1740" y="170" width="120" height="60" as="geometry"/>
                </mxCell>
                <mxCell id="UtuCvoRXhWz_WTzKwQfW-34" value="" style="edgeStyle=none;html=1;" parent="1" source="rOXuChgOmX8JVEiVYjmg-16" target="UtuCvoRXhWz_WTzKwQfW-33" edge="1">
                    <mxGeometry relative="1" as="geometry"/>
                </mxCell>
                <mxCell id="rOXuChgOmX8JVEiVYjmg-16" value="لقد تم تفعيل الحماية من قبل بالفعل" style="rounded=1;whiteSpace=wrap;html=1;" parent="1" vertex="1">
                    <mxGeometry x="1210" y="170" width="120" height="60" as="geometry"/>
                </mxCell>
                <mxCell id="UtuCvoRXhWz_WTzKwQfW-40" value="" style="edgeStyle=none;html=1;" parent="1" source="rOXuChgOmX8JVEiVYjmg-17" target="UtuCvoRXhWz_WTzKwQfW-39" edge="1">
                    <mxGeometry relative="1" as="geometry"/>
                </mxCell>
                <mxCell id="rOXuChgOmX8JVEiVYjmg-17" value="منشور في المدونة" style="rounded=1;whiteSpace=wrap;html=1;" parent="1" vertex="1">
                    <mxGeometry x="1910" y="170" width="120" height="60" as="geometry"/>
                </mxCell>
                <mxCell id="UtuCvoRXhWz_WTzKwQfW-4" value="" style="edgeStyle=none;html=1;" parent="1" source="UtuCvoRXhWz_WTzKwQfW-1" target="UtuCvoRXhWz_WTzKwQfW-3" edge="1">
                    <mxGeometry relative="1" as="geometry"/>
                </mxCell>
                <mxCell id="UtuCvoRXhWz_WTzKwQfW-1" value="تصميم عشوائي من مجموعة تصميمات و عناوين مختارة" style="rounded=1;whiteSpace=wrap;html=1;" parent="1" vertex="1">
                    <mxGeometry x="150" y="310" width="120" height="60" as="geometry"/>
                </mxCell>
                <mxCell id="UtuCvoRXhWz_WTzKwQfW-6" value="" style="edgeStyle=none;html=1;" parent="1" source="UtuCvoRXhWz_WTzKwQfW-3" target="UtuCvoRXhWz_WTzKwQfW-5" edge="1">
                    <mxGeometry relative="1" as="geometry"/>
                </mxCell>
                <mxCell id="UtuCvoRXhWz_WTzKwQfW-3" value="دعوة لقراءة أهم منشوري المدونة" style="whiteSpace=wrap;html=1;rounded=1;" parent="1" vertex="1">
                    <mxGeometry x="150" y="450" width="120" height="60" as="geometry"/>
                </mxCell>
                <mxCell id="UtuCvoRXhWz_WTzKwQfW-8" value="" style="edgeStyle=none;html=1;" parent="1" source="UtuCvoRXhWz_WTzKwQfW-5" target="UtuCvoRXhWz_WTzKwQfW-7" edge="1">
                    <mxGeometry relative="1" as="geometry"/>
                </mxCell>
                <mxCell id="UtuCvoRXhWz_WTzKwQfW-5" value="مستويات الحماية المتاحة" style="whiteSpace=wrap;html=1;rounded=1;" parent="1" vertex="1">
                    <mxGeometry x="150" y="590" width="120" height="60" as="geometry"/>
                </mxCell>
                <mxCell id="UtuCvoRXhWz_WTzKwQfW-10" value="" style="edgeStyle=none;html=1;" parent="1" source="UtuCvoRXhWz_WTzKwQfW-7" target="UtuCvoRXhWz_WTzKwQfW-9" edge="1">
                    <mxGeometry relative="1" as="geometry"/>
                </mxCell>
                <mxCell id="UtuCvoRXhWz_WTzKwQfW-7" value="التأكيد على أهمية الحماية" style="whiteSpace=wrap;html=1;rounded=1;" parent="1" vertex="1">
                    <mxGeometry x="-30" y="590" width="120" height="60" as="geometry"/>
                </mxCell>
                <mxCell id="UtuCvoRXhWz_WTzKwQfW-13" value="" style="edgeStyle=none;html=1;" parent="1" source="UtuCvoRXhWz_WTzKwQfW-9" target="UtuCvoRXhWz_WTzKwQfW-12" edge="1">
                    <mxGeometry relative="1" as="geometry"/>
                </mxCell>
                <mxCell id="UtuCvoRXhWz_WTzKwQfW-9" value="الحماية سهلة و بسيطة عن طريق برنامج يتم تحميله" style="whiteSpace=wrap;html=1;rounded=1;" parent="1" vertex="1">
                    <mxGeometry x="-30" y="450" width="120" height="60" as="geometry"/>
                </mxCell>
                <mxCell id="UtuCvoRXhWz_WTzKwQfW-15" value="" style="edgeStyle=none;html=1;" parent="1" source="UtuCvoRXhWz_WTzKwQfW-12" target="UtuCvoRXhWz_WTzKwQfW-14" edge="1">
                    <mxGeometry relative="1" as="geometry"/>
                </mxCell>
                <mxCell id="UtuCvoRXhWz_WTzKwQfW-12" value="ادعمنا" style="whiteSpace=wrap;html=1;rounded=1;" parent="1" vertex="1">
                    <mxGeometry x="-30" y="310" width="120" height="60" as="geometry"/>
                </mxCell>
                <mxCell id="UtuCvoRXhWz_WTzKwQfW-14" value="ما هي مفازا" style="whiteSpace=wrap;html=1;rounded=1;" parent="1" vertex="1">
                    <mxGeometry x="-30" y="170" width="120" height="60" as="geometry"/>
                </mxCell>
                <mxCell id="UtuCvoRXhWz_WTzKwQfW-18" value="مساحة لكلام العميل يقرأه قبل ما يفعل الحماية" style="whiteSpace=wrap;html=1;rounded=1;" parent="1" vertex="1">
                    <mxGeometry x="330" y="310" width="120" height="60" as="geometry"/>
                </mxCell>
                <mxCell id="UtuCvoRXhWz_WTzKwQfW-24" value="" style="edgeStyle=none;html=1;" parent="1" source="UtuCvoRXhWz_WTzKwQfW-20" target="UtuCvoRXhWz_WTzKwQfW-23" edge="1">
                    <mxGeometry relative="1" as="geometry"/>
                </mxCell>
                <mxCell id="UtuCvoRXhWz_WTzKwQfW-20" value="اختيار الجهاز اللي عايز يفعل عليه الحماية" style="whiteSpace=wrap;html=1;rounded=1;" parent="1" vertex="1">
                    <mxGeometry x="500" y="310" width="120" height="60" as="geometry"/>
                </mxCell>
                <mxCell id="UtuCvoRXhWz_WTzKwQfW-23" value="زرار للاطلاع على مستويات الحماية" style="whiteSpace=wrap;html=1;rounded=1;" parent="1" vertex="1">
                    <mxGeometry x="500" y="450" width="120" height="60" as="geometry"/>
                </mxCell>
                <mxCell id="UtuCvoRXhWz_WTzKwQfW-28" value="" style="edgeStyle=none;html=1;" parent="1" source="UtuCvoRXhWz_WTzKwQfW-25" target="UtuCvoRXhWz_WTzKwQfW-27" edge="1">
                    <mxGeometry relative="1" as="geometry"/>
                </mxCell>
                <mxCell id="UtuCvoRXhWz_WTzKwQfW-25" value="يإما صفحة فيها شعار للجهاز و تحميله" style="whiteSpace=wrap;html=1;rounded=1;" parent="1" vertex="1">
                    <mxGeometry x="680" y="310" width="120" height="60" as="geometry"/>
                </mxCell>
                <mxCell id="UtuCvoRXhWz_WTzKwQfW-27" value="يإما صفحة فيها جزء من الخطوات، و الخطوات فيها التالي و السابق" style="whiteSpace=wrap;html=1;rounded=1;" parent="1" vertex="1">
                    <mxGeometry x="680" y="450" width="120" height="60" as="geometry"/>
                </mxCell>
                <mxCell id="UtuCvoRXhWz_WTzKwQfW-31" value="نافذة الدعم، و زرار لتفعيل الحماية على جهاز اخر" style="whiteSpace=wrap;html=1;rounded=1;" parent="1" vertex="1">
                    <mxGeometry x="1040" y="310" width="120" height="60" as="geometry"/>
                </mxCell>
                <mxCell id="UtuCvoRXhWz_WTzKwQfW-33" value="إظهار خطأ إذا كان المستخدم قد فعل الحماية بالفعل" style="whiteSpace=wrap;html=1;rounded=1;" parent="1" vertex="1">
                    <mxGeometry x="1210" y="310" width="120" height="60" as="geometry"/>
                </mxCell>
                <mxCell id="UtuCvoRXhWz_WTzKwQfW-38" value="" style="edgeStyle=none;html=1;" parent="1" source="UtuCvoRXhWz_WTzKwQfW-35" target="UtuCvoRXhWz_WTzKwQfW-37" edge="1">
                    <mxGeometry relative="1" as="geometry"/>
                </mxCell>
                <mxCell id="UtuCvoRXhWz_WTzKwQfW-35" value="أهم منشوري المدونة" style="whiteSpace=wrap;html=1;rounded=1;" parent="1" vertex="1">
                    <mxGeometry x="1390" y="310" width="120" height="60" as="geometry"/>
                </mxCell>
                <mxCell id="UtuCvoRXhWz_WTzKwQfW-37" value="منشورات المدونة" style="whiteSpace=wrap;html=1;rounded=1;" parent="1" vertex="1">
                    <mxGeometry x="1390" y="450" width="120" height="60" as="geometry"/>
                </mxCell>
                <mxCell id="UtuCvoRXhWz_WTzKwQfW-42" value="" style="edgeStyle=none;html=1;" parent="1" source="UtuCvoRXhWz_WTzKwQfW-39" target="UtuCvoRXhWz_WTzKwQfW-41" edge="1">
                    <mxGeometry relative="1" as="geometry"/>
                </mxCell>
                <mxCell id="UtuCvoRXhWz_WTzKwQfW-39" value="مكونات المنشور:&lt;div&gt;1. تصميم&lt;br&gt;2. عنوان&lt;/div&gt;&lt;div&gt;3. المنشور نفسه&lt;/div&gt;" style="whiteSpace=wrap;html=1;rounded=1;" parent="1" vertex="1">
                    <mxGeometry x="1910" y="310" width="120" height="80" as="geometry"/>
                </mxCell>
                <mxCell id="UtuCvoRXhWz_WTzKwQfW-41" value="اطلع على منشورات أخرى" style="whiteSpace=wrap;html=1;rounded=1;" parent="1" vertex="1">
                    <mxGeometry x="1910" y="480" width="120" height="60" as="geometry"/>
                </mxCell>
                <mxCell id="UtuCvoRXhWz_WTzKwQfW-47" value="" style="edgeStyle=none;html=1;" parent="1" source="UtuCvoRXhWz_WTzKwQfW-44" target="UtuCvoRXhWz_WTzKwQfW-46" edge="1">
                    <mxGeometry relative="1" as="geometry"/>
                </mxCell>
                <mxCell id="UtuCvoRXhWz_WTzKwQfW-44" value="نافذة الدعم" style="rounded=1;whiteSpace=wrap;html=1;" parent="1" vertex="1">
                    <mxGeometry x="2110" y="170" width="120" height="60" as="geometry"/>
                </mxCell>
                <mxCell id="UtuCvoRXhWz_WTzKwQfW-46" value="يحدد العميل الكمية اللي عايز يدعمنا بيها، و زرار &quot;ادعمنا&quot; ينقله على بوابة الدفع مباشر" style="whiteSpace=wrap;html=1;rounded=1;" parent="1" vertex="1">
                    <mxGeometry x="2110" y="310" width="120" height="60" as="geometry"/>
                </mxCell>
                <mxCell id="UtuCvoRXhWz_WTzKwQfW-55" value="" style="edgeStyle=none;html=1;" parent="1" source="UtuCvoRXhWz_WTzKwQfW-56" target="UtuCvoRXhWz_WTzKwQfW-57" edge="1">
                    <mxGeometry relative="1" as="geometry"/>
                </mxCell>
                <mxCell id="UtuCvoRXhWz_WTzKwQfW-58" style="edgeStyle=none;html=1;exitX=1;exitY=0.5;exitDx=0;exitDy=0;strokeColor=light-dark(#ff0000, #ededed);endArrow=openAsync;endFill=0;" parent="1" source="UtuCvoRXhWz_WTzKwQfW-56" target="rOXuChgOmX8JVEiVYjmg-7" edge="1">
                    <mxGeometry relative="1" as="geometry"/>
                </mxCell>
                <mxCell id="UtuCvoRXhWz_WTzKwQfW-56" value="مبارك تفعيل الحماية" style="rounded=1;whiteSpace=wrap;html=1;" parent="1" vertex="1">
                    <mxGeometry x="870" y="170" width="120" height="60" as="geometry"/>
                </mxCell>
                <mxCell id="UtuCvoRXhWz_WTzKwQfW-61" value="" style="edgeStyle=none;html=1;" parent="1" source="UtuCvoRXhWz_WTzKwQfW-57" target="UtuCvoRXhWz_WTzKwQfW-60" edge="1">
                    <mxGeometry relative="1" as="geometry"/>
                </mxCell>
                <mxCell id="UtuCvoRXhWz_WTzKwQfW-57" value="خطوات لاختبار إن كانت الحماية تم تفعيلها بالفعل" style="whiteSpace=wrap;html=1;rounded=1;" parent="1" vertex="1">
                    <mxGeometry x="870" y="310" width="120" height="60" as="geometry"/>
                </mxCell>
                <mxCell id="UtuCvoRXhWz_WTzKwQfW-63" value="" style="edgeStyle=none;html=1;" parent="1" source="UtuCvoRXhWz_WTzKwQfW-60" target="UtuCvoRXhWz_WTzKwQfW-62" edge="1">
                    <mxGeometry relative="1" as="geometry"/>
                </mxCell>
                <mxCell id="UtuCvoRXhWz_WTzKwQfW-60" value="لو الحماية مش مفعلة، تظهر تحت نصائح يجربها المستخدم" style="whiteSpace=wrap;html=1;rounded=1;" parent="1" vertex="1">
                    <mxGeometry x="870" y="450" width="120" height="60" as="geometry"/>
                </mxCell>
                <mxCell id="UtuCvoRXhWz_WTzKwQfW-62" value="لو مش عارف يشغل الحماية، يتواصل مع خدمة العملاء" style="whiteSpace=wrap;html=1;rounded=1;" parent="1" vertex="1">
                    <mxGeometry x="870" y="590" width="120" height="60" as="geometry"/>
                </mxCell>
            </root>
        </mxGraphModel>
    </diagram>
</mxfile>